<svg width="32" height="32" viewBox="0 0 32 32" fill="none" xmlns="http://www.w3.org/2000/svg">
<path d="M16 2.66669C8.63996 2.66669 2.66663 8.64002 2.66663 16C2.66663 23.36 8.63996 29.3334 16 29.3334C23.36 29.3334 29.3333 23.36 29.3333 16C29.3333 8.64002 23.36 2.66669 16 2.66669ZM22.1866 11.7334C21.9866 13.84 21.12 18.96 20.68 21.32C20.4933 22.32 20.12 22.6534 19.7733 22.6934C19 22.76 18.4133 22.1867 17.6666 21.6934C16.4933 20.92 15.8266 20.44 14.6933 19.6934C13.3733 18.8267 14.2266 18.3467 14.9866 17.5734C15.1866 17.3734 18.6 14.2667 18.6666 13.9867C18.6759 13.9443 18.6747 13.9003 18.663 13.8584C18.6514 13.8166 18.6298 13.7782 18.6 13.7467C18.52 13.68 18.4133 13.7067 18.32 13.72C18.2 13.7467 16.3333 14.9867 12.6933 17.44C12.16 17.8 11.68 17.9867 11.2533 17.9734C10.7733 17.96 9.86663 17.7067 9.18663 17.48C8.34663 17.2134 7.69329 17.0667 7.74663 16.6C7.77329 16.36 8.10663 16.12 8.73329 15.8667C12.6266 14.1734 15.2133 13.0534 16.5066 12.52C20.2133 10.9734 20.9733 10.7067 21.48 10.7067C21.5866 10.7067 21.84 10.7334 22 10.8667C22.1333 10.9734 22.1733 11.12 22.1866 11.2267C22.1733 11.3067 22.2 11.5467 22.1866 11.7334Z" fill="white"/>
</svg>
