<svg width="70" height="70" viewBox="0 0 70 70" fill="none" xmlns="http://www.w3.org/2000/svg">
<path d="M35 5.83334C18.9 5.83334 5.83333 18.9 5.83333 35C5.83333 51.1 18.9 64.1667 35 64.1667C51.1 64.1667 64.1667 51.1 64.1667 35C64.1667 18.9 51.1 5.83334 35 5.83334ZM48.5333 25.6667C48.0958 30.275 46.2 41.475 45.2375 46.6375C44.8292 48.825 44.0125 49.5542 43.2542 49.6417C41.5625 49.7875 40.2792 48.5333 38.6458 47.4542C36.0792 45.7625 34.6208 44.7125 32.1417 43.0792C29.2542 41.1833 31.1208 40.1333 32.7833 38.4417C33.2208 38.0042 40.6875 31.2083 40.8333 30.5958C40.8536 30.5031 40.8509 30.4068 40.8255 30.3153C40.8001 30.2238 40.7527 30.1399 40.6875 30.0708C40.5125 29.925 40.2792 29.9833 40.075 30.0125C39.8125 30.0708 35.7292 32.7833 27.7667 38.15C26.6 38.9375 25.55 39.3458 24.6167 39.3167C23.5667 39.2875 21.5833 38.7333 20.0958 38.2375C18.2583 37.6542 16.8292 37.3333 16.9458 36.3125C17.0042 35.7875 17.7333 35.2625 19.1042 34.7083C27.6208 31.0042 33.2792 28.5542 36.1083 27.3875C44.2167 24.0042 45.8792 23.4208 46.9875 23.4208C47.2208 23.4208 47.775 23.4792 48.125 23.7708C48.4167 24.0042 48.5042 24.325 48.5333 24.5583C48.5042 24.7333 48.5625 25.2583 48.5333 25.6667Z" fill="#53514D"/>
</svg>
