<svg width="27" height="27" viewBox="0 0 27 27" fill="none" xmlns="http://www.w3.org/2000/svg">
<path d="M17.6486 0H9.36495C1.79955 0 0 1.79955 0 9.35145V17.635C0 25.1991 1.78605 27 9.35145 27H17.635C25.1991 27 27 25.214 27 17.6486V9.36495C27 1.79955 25.214 0 17.6486 0ZM21.7971 19.2645H19.8274C19.0823 19.2645 18.8582 18.6611 17.5217 17.3246C16.3553 16.2 15.8625 16.0596 15.5669 16.0596C15.1592 16.0596 15.0471 16.1716 15.0471 16.7346V18.5058C15.0471 18.9851 14.8919 19.2659 13.6404 19.2659C12.4259 19.1842 11.2481 18.8152 10.2041 18.1893C9.16012 17.5633 8.27978 16.6983 7.6356 15.6654C6.10628 13.7619 5.04217 11.5278 4.5279 9.14085C4.5279 8.8452 4.63995 8.5779 5.2029 8.5779H7.1712C7.67745 8.5779 7.8597 8.80335 8.05815 9.3231C9.01395 12.1365 10.6448 14.5827 11.3063 14.5827C11.5601 14.5827 11.6708 14.4707 11.6708 13.8375V10.9404C11.5871 9.61875 10.885 9.5067 10.885 9.0288C10.8941 8.90275 10.9518 8.78517 11.0461 8.70099C11.1403 8.61682 11.2637 8.57266 11.39 8.5779H14.4841C14.9067 8.5779 15.0471 8.7885 15.0471 9.29475V13.2044C15.0471 13.6269 15.2294 13.7673 15.3562 13.7673C15.6101 13.7673 15.8058 13.6269 16.2702 13.1625C17.2677 11.9461 18.0826 10.5909 18.6894 9.1395C18.7514 8.96517 18.8688 8.81591 19.0236 8.71451C19.1783 8.61311 19.3621 8.56513 19.5466 8.5779H21.5163C22.1063 8.5779 22.2318 8.87355 22.1063 9.29475C21.3901 10.8991 20.5039 12.4221 19.4629 13.8375C19.251 14.1615 19.166 14.3302 19.4629 14.7096C19.6587 15.0052 20.3486 15.5817 20.813 16.1298C21.4878 16.803 22.0482 17.5818 22.4721 18.4356C22.6409 18.9837 22.3587 19.2645 21.7971 19.2645Z" fill="white"/>
</svg>
