<svg width="60" height="60" viewBox="0 0 60 60" fill="none" xmlns="http://www.w3.org/2000/svg">
<path d="M39.219 0H20.811C3.999 0 0 3.999 0 20.781V39.189C0 55.998 3.969 60 20.781 60H39.189C55.998 60 60 56.031 60 39.219V20.811C60 3.999 56.031 0 39.219 0ZM48.438 42.81H44.061C42.405 42.81 41.907 41.469 38.937 38.499C36.345 36 35.25 35.688 34.593 35.688C33.687 35.688 33.438 35.937 33.438 37.188V41.124C33.438 42.189 33.093 42.813 30.312 42.813C27.613 42.6316 24.9958 41.8116 22.6758 40.4206C20.3558 39.0295 18.3995 37.1072 16.968 34.812C13.5695 30.582 11.2048 25.6174 10.062 20.313C10.062 19.656 10.311 19.062 11.562 19.062H15.936C17.061 19.062 17.466 19.563 17.907 20.718C20.031 26.97 23.655 32.406 25.125 32.406C25.689 32.406 25.935 32.157 25.935 30.75V24.312C25.749 21.375 24.189 21.126 24.189 20.064C24.209 19.7839 24.3374 19.5226 24.5469 19.3355C24.7563 19.1485 25.0304 19.0504 25.311 19.062H32.187C33.126 19.062 33.438 19.53 33.438 20.655V29.343C33.438 30.282 33.843 30.594 34.125 30.594C34.689 30.594 35.124 30.282 36.156 29.25C38.3726 26.5468 40.1836 23.5352 41.532 20.31C41.6698 19.9226 41.9306 19.5909 42.2746 19.3656C42.6185 19.1402 43.0268 19.0336 43.437 19.062H47.814C49.125 19.062 49.404 19.719 49.125 20.655C47.5335 24.2203 45.5642 27.6046 43.251 30.75C42.78 31.47 42.591 31.845 43.251 32.688C43.686 33.345 45.219 34.626 46.251 35.844C47.7507 37.3399 48.9961 39.0707 49.938 40.968C50.313 42.186 49.686 42.81 48.438 42.81Z" fill="#345DEE"/>
</svg>
