<svg width="43" height="40" viewBox="0 0 43 40" fill="none" xmlns="http://www.w3.org/2000/svg">
<path d="M0 0H20.9694C17.1547 0.00681579 13.5777 0.97125 10.4949 2.65475C10.4919 2.65646 10.4883 2.65816 10.4853 2.65986C8.01838 4.00712 5.8678 5.81444 4.16465 7.95744C1.7675 10.974 0.257397 14.6545 0.000601981 18.6554V0H0Z" fill="#32312E"/>
<path d="M21.0002 20.4536C20.9978 20.5485 20.9941 20.6428 20.9893 20.7371C20.9863 20.6865 20.9845 20.636 20.9827 20.5854V20.5837C20.9737 20.3503 20.9695 20.1151 20.9695 19.8794C20.9695 19.6437 20.9737 19.4086 20.9827 19.1751V19.174C20.9755 19.0746 20.9665 18.9763 20.9563 18.8786C20.952 18.8417 20.9484 18.8053 20.9436 18.769C20.9382 18.7224 20.9328 18.6753 20.9262 18.6287C20.9262 18.6276 20.9262 18.6264 20.9256 18.6253C20.9208 18.5884 20.916 18.5515 20.91 18.5145C20.9015 18.4555 20.8925 18.3964 20.8829 18.3373C20.8805 18.3226 20.8781 18.3084 20.8757 18.2936C20.8648 18.2294 20.8534 18.1658 20.8414 18.1022C20.8264 18.0244 20.8107 17.9466 20.7939 17.8693C20.7855 17.8307 20.777 17.7921 20.7674 17.7534C20.7614 17.725 20.7548 17.6966 20.7476 17.6682C20.7361 17.62 20.7241 17.5717 20.7115 17.5234C20.7019 17.4848 20.6916 17.4467 20.6814 17.4092C20.6712 17.3712 20.6604 17.3331 20.6495 17.2951C20.6411 17.2633 20.6321 17.2315 20.6225 17.2002C20.6171 17.1809 20.6117 17.1622 20.605 17.1434C20.5948 17.1094 20.5846 17.0747 20.5738 17.0406C20.5527 16.9753 20.5317 16.9106 20.51 16.8458C20.4974 16.8083 20.4848 16.7714 20.4715 16.7345C20.4457 16.6606 20.4186 16.5874 20.3909 16.5147C20.3759 16.4749 20.3609 16.4357 20.3446 16.3965C20.3314 16.363 20.3182 16.3301 20.3043 16.2966C20.2899 16.2602 20.2755 16.2244 20.2598 16.1887C20.2442 16.1529 20.2292 16.1171 20.2135 16.0813C20.1985 16.0455 20.1823 16.0097 20.166 15.9745C20.1336 15.9035 20.1005 15.8331 20.0668 15.7627C19.9826 15.5877 19.8924 15.4151 19.798 15.2452C19.718 15.1021 19.6344 14.9607 19.5472 14.8215C19.4919 14.7329 19.4353 14.6454 19.377 14.5591C19.2892 14.4296 19.199 14.3018 19.1064 14.1763C19.1064 14.1763 19.1064 14.1761 19.1064 14.1757C19.0775 14.1371 19.0486 14.0985 19.0198 14.0604C18.932 13.9463 18.8418 13.8332 18.7491 13.7225C16.8956 11.5079 14.0661 10.0561 10.8739 9.94653C10.8312 9.94482 10.7879 9.94369 10.7446 9.94255C10.7013 9.94141 10.658 9.94084 10.6147 9.94028C10.578 9.93971 10.5413 9.93971 10.5046 9.93971C12.8651 9.93289 15.0434 9.19167 16.7958 7.94495C16.7976 7.94382 16.7988 7.94268 16.8006 7.94154C19.2176 6.22169 20.8234 3.53968 20.9827 0.499268C21.1421 3.54593 22.7538 6.23135 25.178 7.9512C26.9371 9.19963 29.1244 9.93971 31.4939 9.93971C25.8913 9.94652 21.3147 14.0871 21.0002 19.3052V19.3092C21.005 19.4455 21.0074 19.5812 21.008 19.7187V19.7329C21.0086 19.7499 21.0086 19.7675 21.0086 19.7846V19.8061C21.0092 19.8306 21.0092 19.855 21.0092 19.8794C21.0092 19.9038 21.0092 19.9283 21.0086 19.9527V19.9743C21.0086 19.9913 21.0086 20.0089 21.008 20.0259V20.0401C21.008 20.1776 21.005 20.3133 21.0002 20.4497V20.4536Z" fill="#32312E"/>
<path d="M42.0184 39.7588H0.000244141C3.8227 39.7588 7.40761 38.7932 10.4952 37.1041C10.4916 37.1029 10.4885 37.1006 10.4849 37.0989C10.4885 37.0972 10.4916 37.095 10.4952 37.0933C16.5356 33.7899 20.6756 27.7312 20.9895 20.7371C21.304 27.7426 25.4572 33.8098 31.5139 37.1103C34.6056 38.7949 38.1929 39.7588 42.0184 39.7588Z" fill="#32312E"/>
<path d="M42.0184 0V18.6531C41.7604 14.6426 40.2424 10.953 37.8351 7.93302C36.1301 5.79513 33.9795 3.99235 31.5138 2.6485C28.4221 0.963867 24.8347 0 21.0093 0H42.0184Z" fill="#32312E"/>
</svg>
