<svg xmlns="http://www.w3.org/2000/svg" width="86" height="86" viewBox="0 0 86 86" fill="none">
<path d="M28 28H42.9604C40.2389 28.0051 37.6868 28.7337 35.4875 30.0054C35.4853 30.0067 35.4828 30.008 35.4806 30.0093C33.7206 31.027 32.1863 32.3923 30.9712 34.0111C29.261 36.2898 28.1836 39.0701 28.0004 42.0924V28H28Z" fill="white"/>
<path d="M42.9822 43.4507C42.9805 43.5224 42.9779 43.5936 42.9745 43.6648C42.9724 43.6267 42.9711 43.5885 42.9698 43.5503V43.549C42.9634 43.3727 42.9603 43.195 42.9603 43.017C42.9603 42.8389 42.9634 42.6613 42.9698 42.4849V42.4841C42.9646 42.409 42.9582 42.3348 42.9509 42.261C42.9479 42.2331 42.9453 42.2056 42.9419 42.1782C42.938 42.143 42.9342 42.1074 42.9295 42.0722C42.9295 42.0713 42.9295 42.0705 42.929 42.0696C42.9256 42.0417 42.9222 42.0138 42.9179 41.9859C42.9119 41.9413 42.9054 41.8967 42.8986 41.8521C42.8968 41.8409 42.8951 41.8302 42.8934 41.819C42.8857 41.7706 42.8775 41.7225 42.869 41.6744C42.8582 41.6157 42.8471 41.5569 42.8351 41.4985C42.8291 41.4694 42.8231 41.4402 42.8162 41.411C42.8119 41.3896 42.8072 41.3681 42.802 41.3466C42.7939 41.3102 42.7853 41.2737 42.7763 41.2372C42.7694 41.2081 42.7621 41.1793 42.7548 41.151C42.7475 41.1222 42.7398 41.0935 42.7321 41.0648C42.7261 41.0407 42.7196 41.0167 42.7128 40.9931C42.7089 40.9785 42.7051 40.9644 42.7003 40.9502C42.693 40.9245 42.6858 40.8983 42.678 40.8725C42.663 40.8232 42.648 40.7743 42.6325 40.7254C42.6235 40.6971 42.6145 40.6692 42.6051 40.6413C42.5866 40.5855 42.5673 40.5302 42.5476 40.4752C42.5369 40.4452 42.5261 40.4156 42.5146 40.386C42.5051 40.3607 42.4957 40.3358 42.4858 40.3105C42.4755 40.283 42.4652 40.256 42.4541 40.229C42.4429 40.2019 42.4322 40.1749 42.421 40.1479C42.4103 40.1208 42.3987 40.0938 42.3871 40.0672C42.364 40.0136 42.3404 39.9604 42.3163 39.9072C42.2563 39.775 42.1919 39.6446 42.1245 39.5163C42.0675 39.4082 42.0078 39.3013 41.9456 39.1962C41.9062 39.1293 41.8658 39.0632 41.8242 38.998C41.7616 38.9002 41.6972 38.8036 41.6311 38.7088C41.6311 38.7088 41.6311 38.7087 41.6311 38.7084C41.6105 38.6792 41.5899 38.65 41.5693 38.6213C41.5067 38.535 41.4423 38.4497 41.3763 38.366C40.0539 36.6931 38.0352 35.5964 35.7578 35.5136C35.7273 35.5123 35.6964 35.5115 35.6655 35.5106C35.6346 35.5098 35.6037 35.5093 35.5728 35.5089C35.5467 35.5085 35.5205 35.5085 35.4943 35.5085C37.1784 35.5033 38.7324 34.9434 39.9827 34.0016C39.984 34.0008 39.9848 33.9999 39.9861 33.999C41.7105 32.6999 42.8561 30.6738 42.9698 28.3771C43.0835 30.6786 44.2334 32.7072 45.9629 34.0063C47.2179 34.9494 48.7784 35.5085 50.4689 35.5085C46.4718 35.5136 43.2066 38.6414 42.9822 42.5832V42.5862C42.9857 42.6892 42.9874 42.7917 42.9878 42.8955V42.9063C42.9882 42.9191 42.9882 42.9324 42.9882 42.9453V42.9616C42.9887 42.9801 42.9887 42.9985 42.9887 43.017C42.9887 43.0354 42.9887 43.0539 42.9882 43.0723V43.0886C42.9882 43.1015 42.9882 43.1148 42.9878 43.1277V43.1384C42.9878 43.2422 42.9857 43.3448 42.9822 43.4477V43.4507Z" fill="white"/>
<path d="M57.9774 58.034H28C30.7271 58.034 33.2847 57.3046 35.4875 56.0286C35.4849 56.0277 35.4828 56.026 35.4802 56.0247C35.4828 56.0234 35.4849 56.0217 35.4875 56.0204C39.7969 53.525 42.7506 48.9483 42.9745 43.6649C43.1989 48.9568 46.162 53.54 50.483 56.0333C52.6888 57.3059 55.2481 58.034 57.9774 58.034Z" fill="white"/>
<path d="M57.9774 28V42.0907C57.7933 39.0611 56.7104 36.2739 54.9929 33.9926C53.7765 32.3777 52.2422 31.0158 50.4831 30.0007C48.2773 28.7281 45.7179 28 42.9887 28H57.9774Z" fill="white"/>
<path d="M35.4875 30.0054H35.487" stroke="white" stroke-width="3" stroke-miterlimit="10"/>
</svg>
