<svg width="36" height="33" viewBox="0 0 36 33" fill="none" xmlns="http://www.w3.org/2000/svg">
<path d="M0 0H17C13.9075 0.00511493 11.0075 0.728878 8.50829 1.99227C8.50585 1.99355 8.50292 1.99482 8.50049 1.9961C6.50054 3.00715 4.75706 4.36347 3.37631 5.97169C1.43292 8.23547 0.208673 10.9975 0.000488029 14V0H0Z" fill="#FAFAFA"/>
<path d="M18.0008 15.7759C17.9987 15.8509 17.9956 15.9255 17.9915 16C17.9889 15.96 17.9874 15.9201 17.9858 15.8801V15.8788C17.9781 15.6942 17.9745 15.5083 17.9745 15.3219C17.9745 15.1356 17.9781 14.9497 17.9858 14.7651V14.7642C17.9796 14.6856 17.9719 14.608 17.9631 14.5307C17.9595 14.5015 17.9564 14.4728 17.9523 14.444C17.9477 14.4072 17.943 14.37 17.9373 14.3331C17.9373 14.3322 17.9373 14.3313 17.9368 14.3304C17.9327 14.3013 17.9286 14.2721 17.9234 14.2429C17.9162 14.1962 17.9085 14.1495 17.9002 14.1028C17.8981 14.0911 17.8961 14.0799 17.894 14.0682C17.8847 14.0175 17.8749 13.9672 17.8646 13.9169C17.8517 13.8553 17.8383 13.7938 17.8239 13.7328C17.8167 13.7022 17.8094 13.6717 17.8012 13.6412C17.796 13.6187 17.7903 13.5962 17.7842 13.5738C17.7744 13.5356 17.764 13.4975 17.7532 13.4593C17.745 13.4288 17.7362 13.3987 17.7274 13.369C17.7187 13.3389 17.7094 13.3089 17.7001 13.2788C17.6929 13.2536 17.6851 13.2285 17.6769 13.2038C17.6722 13.1885 17.6676 13.1737 17.6619 13.1589C17.6532 13.1319 17.6444 13.1045 17.6351 13.0776C17.6171 13.026 17.599 12.9748 17.5804 12.9236C17.5696 12.8939 17.5588 12.8648 17.5474 12.8356C17.5253 12.7772 17.502 12.7193 17.4783 12.6618C17.4654 12.6303 17.4525 12.5994 17.4386 12.5684C17.4273 12.5419 17.4159 12.5158 17.4041 12.4893C17.3917 12.4606 17.3793 12.4323 17.3659 12.404C17.3525 12.3757 17.3396 12.3474 17.3262 12.3192C17.3133 12.2909 17.2994 12.2626 17.2854 12.2347C17.2576 12.1786 17.2292 12.1229 17.2003 12.0672C17.1281 11.9289 17.0508 11.7924 16.9698 11.6582C16.9012 11.545 16.8295 11.4332 16.7547 11.3232C16.7073 11.2531 16.6588 11.184 16.6088 11.1157C16.5335 11.0133 16.4561 10.9123 16.3767 10.8131C16.3767 10.8131 16.3767 10.8129 16.3767 10.8126C16.3519 10.7821 16.3272 10.7515 16.3024 10.7215C16.2271 10.6312 16.1498 10.5418 16.0703 10.4543C14.4808 8.70343 12.0542 7.55567 9.31667 7.469C9.28005 7.46766 9.24292 7.46676 9.20578 7.46586C9.16865 7.46496 9.13152 7.46451 9.09438 7.46406C9.06292 7.46361 9.03146 7.46361 9 7.46361C11.0243 7.45822 12.8923 6.87222 14.3952 5.88656C14.3967 5.88566 14.3978 5.88476 14.3993 5.88386C16.4721 4.52415 17.8491 2.40375 17.9858 0C18.1225 2.40869 19.5047 4.53178 21.5837 5.8915C23.0922 6.8785 24.968 7.46361 27 7.46361C22.1953 7.469 18.2705 10.7426 18.0008 14.868V14.8711C18.0049 14.9789 18.007 15.0862 18.0075 15.1949V15.2061C18.008 15.2196 18.008 15.2335 18.008 15.2469V15.264C18.0085 15.2833 18.0085 15.3026 18.0085 15.3219C18.0085 15.3412 18.0085 15.3606 18.008 15.3799V15.3969C18.008 15.4104 18.008 15.4243 18.0075 15.4378V15.449C18.0075 15.5577 18.0049 15.665 18.0008 15.7728V15.7759Z" fill="#FAFAFA"/>
<path d="M36 33H0C3.27498 33 6.34642 32.1371 8.99176 30.6274C8.98866 30.6264 8.98609 30.6244 8.98299 30.6228C8.98609 30.6213 8.98866 30.6193 8.99176 30.6178C14.167 27.6655 17.714 22.2508 17.983 16C18.2525 22.2609 21.8108 27.6832 27 30.633C29.6489 32.1386 32.7225 33 36 33Z" fill="#FAFAFA"/>
<path d="M36 0V14C35.7912 10.9899 34.563 8.2207 32.615 5.95408C31.2354 4.3495 29.4952 2.99644 27.5 1.98782C24.9982 0.723425 22.0955 0 19 0H36Z" fill="#FAFAFA"/>
</svg>
